<svg id="Слой_1" data-name="Слой 1" xmlns="http://www.w3.org/2000/svg" viewBox="0 0 469.37 99.56"><defs><style>.cls-1,.cls-2{fill:#fff;}.cls-2{fill-rule:evenodd;}</style></defs><title>Logo_for_website</title><path class="cls-1" d="M114.9,35.86c0-9.5,7.9-17.07,17.24-17.37a17.54,17.54,0,0,1,11.93,3.69,13.36,13.36,0,0,1,2.09,2.17c0.27,0.36,1.19,1.39,1.08,1.79a2.57,2.57,0,0,1-.66.47l-1.26.89-5.42,3.83c-1.14-2.94-4-4.28-7.06-4.33a7.5,7.5,0,0,0-6.92,4c-2.75,5.17-.73,13.55,5.86,14.33,3.22,0.38,6.78-1,8-4.23L144.63,44a26.59,26.59,0,0,1,2.6,1.54,1.6,1.6,0,0,1,.41.24,4.09,4.09,0,0,1-.73,1.42,10.09,10.09,0,0,1-1,1.3c-3.09,3.52-8.08,5.22-12.66,5.39a17.22,17.22,0,0,1-12-4.27A18.6,18.6,0,0,1,114.9,35.86Z"/><path class="cls-1" d="M151,53.63V20.28a4.75,4.75,0,0,1,0-1.56,3.92,3.92,0,0,1,1.5,0h10.21c3.21,0,6.54-.31,9.48,1.21a12.5,12.5,0,0,1,5.2,17,11.66,11.66,0,0,1-3,3.49c-0.6.47-.51,0.26-0.28,0.79a34.37,34.37,0,0,0,2,3.42l4.9,8.47,0.32,0.55H171.13a1.12,1.12,0,0,1-.68-0.09,5.52,5.52,0,0,1-.86-1.49l-3.26-5.65L164.92,44a3.6,3.6,0,0,0-.6-1,6.7,6.7,0,0,0-2.29,0c-0.45,0-1.15-.16-1.33.17a6.18,6.18,0,0,0,0,2v6.44a6,6,0,0,1,0,2,1,1,0,0,1-.93.14H151Zm9.65-19.1H166a2.65,2.65,0,0,0,2.47-1,5,5,0,0,0,.3-5c-1.15-2.11-3.81-1.55-5.81-1.55a7.06,7.06,0,0,0-2.22,0,5,5,0,0,0,0,1.6v5.88Z"/><path class="cls-1" d="M189.51,18.68l6.29,15.12,4.51-10.59,1.25-2.93a5.11,5.11,0,0,1,.65-1.52,1.87,1.87,0,0,1,1-.07h9.56L204.29,35l-2.34,4.52a18.56,18.56,0,0,0-1.26,2.44,6.59,6.59,0,0,0-.08,2v8.44a3.87,3.87,0,0,1,0,1.25,2,2,0,0,1-.81,0h-8a1.79,1.79,0,0,1-.81,0,3.9,3.9,0,0,1,0-1.29V46.61a32.34,32.34,0,0,0,0-4.44,3.91,3.91,0,0,0-.51-1.2l-1.84-3.58c-3.12-6.1-6.37-12.15-9.38-18.3l-0.21-.41h10.45Z"/><path class="cls-1" d="M215.36,53.63V19.86a2.72,2.72,0,0,1,.05-1.18,3.9,3.9,0,0,1,1.3,0h13.47a11.76,11.76,0,0,1,7.75,2.79,12.31,12.31,0,0,1-1,19.62c-2.36,1.54-4.91,1.82-7.64,1.82h-3.15A2.18,2.18,0,0,0,225,43a5.11,5.11,0,0,0,0,1.71v3c0,1.83.07,3.68,0,5.51,0,0.45.08,0.32-.22,0.45a6.81,6.81,0,0,1-2.05,0h-7.38ZM225,34.53c1.59,0,3.18,0,4.77,0,2.87,0,3.4-3.89,2.35-6S228.3,27,226.48,27a3.57,3.57,0,0,0-1.47.06,5.91,5.91,0,0,0,0,2v5.45Z"/><path class="cls-1" d="M273.58,27h-8.95a3.17,3.17,0,0,0-1.07,0,1.11,1.11,0,0,0-.08.74V51.24a10.56,10.56,0,0,1,0,2.07c-0.09.41,0,.32-0.49,0.32h-8.11a1.17,1.17,0,0,1-1.06-.16,5.44,5.44,0,0,1,0-1.78V28.1a3.17,3.17,0,0,0,0-1.06,7,7,0,0,0-2.18,0h-6.57a3.93,3.93,0,0,1-1.23,0c-0.38-.17-0.18-1.19-0.18-1.66V20.85c0-.34-0.22-2,0-2.17a3.3,3.3,0,0,1,1.09,0h27.16a4.61,4.61,0,0,1,1.53,0,2.25,2.25,0,0,1,.11,1.35v7Z"/><path class="cls-1" d="M292.39,53.93a17.73,17.73,0,0,1-11.51-31.21,17.82,17.82,0,0,1,29.09,17A18.05,18.05,0,0,1,292.39,53.93Zm-8-17.73c0,3.57,1.61,7.36,5.13,8.71a7.91,7.91,0,0,0,9-2.43,11.39,11.39,0,0,0,1.07-10.75A7.89,7.89,0,0,0,291,27.11C286.59,27.8,284.42,32.11,284.42,36.2Z"/><path class="cls-1" d="M314.43,53.63V20.28a4.75,4.75,0,0,1,0-1.56,3.92,3.92,0,0,1,1.5,0h10.21c3.21,0,6.54-.31,9.48,1.21a12.5,12.5,0,0,1,5.2,17,11.66,11.66,0,0,1-3,3.49c-0.6.47-.51,0.26-0.28,0.79a34.37,34.37,0,0,0,2,3.42l4.9,8.47,0.32,0.55H334.52a1.12,1.12,0,0,1-.68-0.09,5.52,5.52,0,0,1-.86-1.49l-3.26-5.65L328.3,44a3.6,3.6,0,0,0-.6-1,6.7,6.7,0,0,0-2.29,0c-0.45,0-1.15-.16-1.33.17a6.18,6.18,0,0,0,0,2v6.44a6,6,0,0,1,0,2,1,1,0,0,1-.93.14h-8.73Zm9.65-19.1h5.28a2.65,2.65,0,0,0,2.47-1,5,5,0,0,0,.3-5C331,26.48,328.32,27,326.31,27a7.06,7.06,0,0,0-2.22,0,5,5,0,0,0,0,1.6v5.88Z"/><path class="cls-1" d="M357,18.68h7.47a3.89,3.89,0,0,1,1.34,0,4.53,4.53,0,0,1,.5,1.44l1.33,3.81,8.12,23.3,2.23,6.41h-9.31c-0.46,0-.36.06-0.56-0.23a9.27,9.27,0,0,1-.7-2.25l-0.91-2.92a4.45,4.45,0,0,0-.45-1.44,3.3,3.3,0,0,0-1.15,0h-5.82a9.36,9.36,0,0,0-2.1,0c-0.4.1-.23,0-0.42,0.41a25.36,25.36,0,0,0-.74,2.45l-0.87,2.85a3.28,3.28,0,0,1-.37,1.14,5.22,5.22,0,0,1-1.75,0h-8.08l4.13-11.82L355.45,23Zm7.52,21.71-3.12-10.83-3.27,10.83h6.39Z"/><path class="cls-1" d="M405,27h-8.95A3.17,3.17,0,0,0,395,27a1.11,1.11,0,0,0-.08.74V51.24a10.56,10.56,0,0,1,0,2.07c-0.09.41,0,.32-0.49,0.32h-8.11a1.17,1.17,0,0,1-1.06-.16,5.44,5.44,0,0,1,0-1.78V28.1a3.17,3.17,0,0,0,0-1.06,7,7,0,0,0-2.18,0h-6.57a3.93,3.93,0,0,1-1.23,0c-0.38-.17-0.18-1.19-0.18-1.66V20.85c0-.34-0.22-2,0-2.17a3.3,3.3,0,0,1,1.09,0h27.16a4.61,4.61,0,0,1,1.53,0A2.25,2.25,0,0,1,405,20v7Z"/><path class="cls-1" d="M433.6,45.26v7.24a3.61,3.61,0,0,1,0,1.13,6.71,6.71,0,0,1-2.16,0H409.76a2.46,2.46,0,0,1-1.21-.07,6,6,0,0,1,0-2V20a4.1,4.1,0,0,1,0-1.3,6.67,6.67,0,0,1,2.18,0h21.46c0.76,0,1-.22,1,0.57V25a6,6,0,0,1,0,2C433,27.1,433,27,432.68,27c-3.57.09-7.15,0-10.72,0H419.5a3.65,3.65,0,0,0-1.23,0,2.27,2.27,0,0,0-.07,1.13v3.06c0,0.47-.11.59,0.19,0.73A5.19,5.19,0,0,0,420,32h8.78a7.84,7.84,0,0,1,1.86,0c0.38,0.11.21-.09,0.28,0.35a14.83,14.83,0,0,1,0,2.37v3.16a5.49,5.49,0,0,1,0,1.84c-0.25.32-2.35,0.06-2.79,0.06h-8.74a3.73,3.73,0,0,0-1.21,0,4.12,4.12,0,0,0,0,1.43v3a2.48,2.48,0,0,0,.05,1.09,3.55,3.55,0,0,0,1.16,0H433.6Z"/><path class="cls-1" d="M438.1,53.63v-32a18.86,18.86,0,0,1,0-2.58c0.08-.55.13-0.37,0.79-0.37h5c3.24,0,6.54-.18,9.77.08,7,0.56,13,4.88,14.94,11.76s0.36,14.89-5.32,19.39c-4,3.16-8.79,3.72-13.69,3.72H438.1Zm21.44-17.53c0-2.93-1-6.07-3.49-7.78C454.2,27.08,452.12,27,450,27a6.46,6.46,0,0,0-2.18,0,0.6,0.6,0,0,0-.05.36,20,20,0,0,0,0,3.14V44.45c0,1,0,.82,1.06.82,2.06,0,4.24.2,6.17-.69C458.24,43.07,459.54,39.49,459.54,36.11Z"/><path class="cls-1" d="M65,64.95a21.5,21.5,0,0,1-22.39,5h0a21.38,21.38,0,0,1,0-40.21h0a21.5,21.5,0,0,1,22.39,5,3.86,3.86,0,0,0,5.62-5.27c-2.39-2.38-5.77-4.29-7.77-5.69V18.3a3.51,3.51,0,1,0-7,0v3.12c-3-.27-3.3-0.41-4.95-0.41a25.28,25.28,0,0,0-5.05.43V18.28a4,4,0,0,0-8,0v5.53c-2,1.39-5.85,3.29-8.21,5.64a28.81,28.81,0,0,0,.12,40.77c2.36,2.35,6.09,4.25,8.09,5.64v5.46a4,4,0,0,0,8,0V78.24a25.28,25.28,0,0,0,5.05.43c1.65,0,1.95-.14,4.95-0.41v3.08a3.51,3.51,0,1,0,7,0V75.91c2-1.4,5.38-3.31,7.77-5.69a3.72,3.72,0,0,0-.16-5.28A4,4,0,0,0,65,64.95Z"/><path class="cls-1" d="M39,61.1V39.17A10.37,10.37,0,0,1,39.09,37c0.28-1.17,1.86-1.12,3.5-1.15,2.11,0,3.81,0,5.7,0,1.12,0,2.24.06,3.36,0.1a9.22,9.22,0,0,1,7.79,5.25,9.51,9.51,0,0,1-.94,9.92c-0.78,1-1.9,1.74-1.2,3.15,0.24,0.49.55,1,.82,1.43,0.83,1.45,1.69,2.88,2.5,4.34a1.87,1.87,0,0,1,0,2.14,2.33,2.33,0,0,1-2,.71c-0.91,0-1.84,0-2.76,0a3,3,0,0,1-2.19-.54,5.71,5.71,0,0,1-.77-1.22l-1.29-2.25a38.69,38.69,0,0,0-2-3.5,1.78,1.78,0,0,0-3.08.29,6.47,6.47,0,0,0-.14,1.92c0,0.91,0,1.81,0,2.72a2.51,2.51,0,0,1-.6,2.12,3.38,3.38,0,0,1-2.32.48c-0.85,0-1.63,0-2.48,0A1.88,1.88,0,0,1,39,61.1Zm7.43-13c0,1.94,3,1.6,4.25,1.57,2.9-.07,3.67-3.37,3.16-5.74A3.6,3.6,0,0,0,51.09,41a17.15,17.15,0,0,0-2.21-.11,3.37,3.37,0,0,0-2.2.46,2.7,2.7,0,0,0-.3,1.8C46.39,44.76,46.36,46.41,46.39,48.06Z"/><path class="cls-2" d="M53.54,2.92l8.79,1.48a0.72,0.72,0,0,1,.59.83l-0.11.62a0.72,0.72,0,0,1-.83.59L53.19,5a0.72,0.72,0,0,1-.59-0.83l0.11-.62a0.72,0.72,0,0,1,.83-0.59h0ZM55.6,6a3.17,3.17,0,0,1-2.75,1.6H48.76A3.17,3.17,0,0,1,46,6l2.57-.22a1.72,1.72,0,0,0,.51.08h3.45a1.71,1.71,0,0,0,.55-0.09L55.6,6h0ZM48.76,0h4.09a3.18,3.18,0,0,1,3,2.29L53.64,2.1a1.72,1.72,0,0,0-1.08-.38H49.11a1.72,1.72,0,0,0-1.1.4l-2.29.19a3.18,3.18,0,0,1,3-2.31h0Z"/><path class="cls-2" d="M38.84,4.09l8.82-1.31a0.72,0.72,0,0,1,.82.6L48.58,4a0.72,0.72,0,0,1-.61.82L39.15,6.13a0.72,0.72,0,0,1-.82-0.6l-0.09-.62a0.72,0.72,0,0,1,.61-0.82h0Zm2.91,2.27a3.17,3.17,0,0,1-2.12,2.37L35.75,10a3.18,3.18,0,0,1-3.1-.66l2.38-1a1.72,1.72,0,0,0,.51-0.08l3.28-1.06a1.72,1.72,0,0,0,.49-0.25l2.43-.57h0ZM33.4,2.79l3.89-1.26a3.18,3.18,0,0,1,3.6,1.24l-2.2.51a1.72,1.72,0,0,0-1.15,0L34.26,4.32a1.72,1.72,0,0,0-.92.72l-2.12.89A3.17,3.17,0,0,1,33.4,2.79h0Z"/><path class="cls-2" d="M25.23,9.73l8-4a0.72,0.72,0,0,1,1,.32l0.28,0.57a0.72,0.72,0,0,1-.32,1l-8,4a0.72,0.72,0,0,1-1-.32l-0.28-.57a0.72,0.72,0,0,1,.32-1h0ZM28.7,11a3.16,3.16,0,0,1-1.28,2.91l-3.31,2.4a3.18,3.18,0,0,1-3.15.33l2-1.68a1.72,1.72,0,0,0,.46-0.24l2.79-2a1.71,1.71,0,0,0,.39-0.39L28.7,11h0Zm-9.05-.82L23,7.78a3.18,3.18,0,0,1,3.81.07L24.84,9a1.72,1.72,0,0,0-1.1.32l-2.79,2a1.71,1.71,0,0,0-.66,1l-1.74,1.5a3.16,3.16,0,0,1,1.1-3.66h0Z"/><path class="cls-2" d="M14,19.3l6.37-6.23a0.72,0.72,0,0,1,1,0l0.44,0.45a0.72,0.72,0,0,1,0,1l-6.37,6.23a0.72,0.72,0,0,1-1,0L14,20.31a0.72,0.72,0,0,1,0-1h0Zm3.69,0.13a3.16,3.16,0,0,1-.32,3.16L15,25.89a3.18,3.18,0,0,1-2.9,1.28L13.45,25a1.71,1.71,0,0,0,.36-0.37l2-2.79a1.7,1.7,0,0,0,.25-0.5l1.63-1.89h0Zm-8.86,2,2.4-3.3A3.18,3.18,0,0,1,14.91,17l-1.48,1.71a1.72,1.72,0,0,0-.94.65l-2,2.79a1.71,1.71,0,0,0-.32,1.12l-1.19,2a3.16,3.16,0,0,1-.08-3.82h0Z"/><path class="cls-2" d="M6.35,31.85L10.47,24a0.72,0.72,0,0,1,1-.3L12,23.95a0.72,0.72,0,0,1,.3,1L8.18,32.8a0.72,0.72,0,0,1-1,.3l-0.56-.29a0.72,0.72,0,0,1-.3-1h0Zm3.55-1a3.16,3.16,0,0,1,.68,3.11L9.31,37.82A3.17,3.17,0,0,1,7,39.93l0.59-2.51A1.71,1.71,0,0,0,7.78,37l1.07-3.28a1.71,1.71,0,0,0,.08-0.55l1-2.3h0ZM2.09,35.47L3.35,31.6a3.18,3.18,0,0,1,3.13-2.18L5.6,31.5a1.71,1.71,0,0,0-.7.91L3.84,35.68a1.71,1.71,0,0,0,0,1.17L3.35,39.08a3.17,3.17,0,0,1-1.26-3.61h0Z"/><path class="cls-2" d="M2.92,46.15l1.48-8.77a0.72,0.72,0,0,1,.83-0.59l0.62,0.1a0.72,0.72,0,0,1,.59.83L5,46.49a0.72,0.72,0,0,1-.83.59L3.51,47a0.72,0.72,0,0,1-.59-0.83h0ZM6,44.09A3.16,3.16,0,0,1,7.6,46.84v4.08A3.16,3.16,0,0,1,6,53.65L5.79,51.08a1.71,1.71,0,0,0,.08-0.51V47.12a1.7,1.7,0,0,0-.09-0.55L6,44.09H6ZM0,50.91V46.84a3.17,3.17,0,0,1,2.3-3L2.11,46a1.71,1.71,0,0,0-.38,1.08v3.44a1.71,1.71,0,0,0,.4,1.1L2.32,54a3.17,3.17,0,0,1-2.32-3H0Z"/><path class="cls-2" d="M4.1,60.81L2.79,52a0.72,0.72,0,0,1,.61-0.82L4,51.1a0.72,0.72,0,0,1,.82.6l1.31,8.8a0.72,0.72,0,0,1-.61.82l-0.63.09a0.72,0.72,0,0,1-.82-0.6h0Zm2.28-2.9A3.17,3.17,0,0,1,8.75,60L10,63.9A3.16,3.16,0,0,1,9.35,67l-1-2.37a1.7,1.7,0,0,0-.08-0.51L7.2,60.83a1.7,1.7,0,0,0-.25-0.49L6.38,57.91h0ZM2.79,66.24L1.53,62.36a3.17,3.17,0,0,1,1.24-3.6L3.29,61a1.71,1.71,0,0,0,0,1.14l1.07,3.28A1.71,1.71,0,0,0,5,66.3l0.89,2.12a3.18,3.18,0,0,1-3.15-2.18h0Z"/><path class="cls-2" d="M9.76,74.39l-4-8a0.72,0.72,0,0,1,.32-1l0.57-.28a0.72,0.72,0,0,1,1,.32l4,8a0.72,0.72,0,0,1-.32,1l-0.57.28a0.72,0.72,0,0,1-1-.32h0ZM11,70.93a3.17,3.17,0,0,1,2.92,1.28l2.4,3.3a3.16,3.16,0,0,1,.33,3.14L15,76.69a1.7,1.7,0,0,0-.24-0.46l-2-2.79a1.71,1.71,0,0,0-.4-0.39L11,70.93h0ZM10.2,80l-2.4-3.3a3.16,3.16,0,0,1,.07-3.8L9,74.78a1.71,1.71,0,0,0,.33,1.1l2,2.79a1.72,1.72,0,0,0,1,.65l1.5,1.74A3.18,3.18,0,0,1,10.2,80h0Z"/><path class="cls-2" d="M19.35,85.56L13.1,79.2a0.72,0.72,0,0,1,0-1l0.45-.44a0.72,0.72,0,0,1,1,0l6.24,6.35a0.72,0.72,0,0,1,0,1l-0.45.44a0.72,0.72,0,0,1-1,0h0Zm0.13-3.68a3.18,3.18,0,0,1,3.17.32L26,84.59a3.16,3.16,0,0,1,1.28,2.89L25,86.14a1.71,1.71,0,0,0-.37-0.36l-2.79-2a1.71,1.71,0,0,0-.5-0.25l-1.89-1.63h0Zm2,8.84-3.31-2.4a3.16,3.16,0,0,1-1.11-3.64l1.71,1.47a1.71,1.71,0,0,0,.65.94l2.79,2a1.72,1.72,0,0,0,1.12.32l2,1.19a3.18,3.18,0,0,1-3.83.08h0Z"/><path class="cls-2" d="M31.92,93.22L24,89.11a0.72,0.72,0,0,1-.31-1L24,87.58a0.72,0.72,0,0,1,1-.3l7.91,4.12a0.72,0.72,0,0,1,.3,1l-0.29.56a0.72,0.72,0,0,1-1,.3h0Zm-1-3.54A3.18,3.18,0,0,1,34,89l3.89,1.26A3.17,3.17,0,0,1,40,92.62L37.51,92A1.71,1.71,0,0,0,37,91.8l-3.28-1.06a1.72,1.72,0,0,0-.55-0.08l-2.3-1h0Zm4.65,7.79-3.89-1.26a3.17,3.17,0,0,1-2.18-3.12L31.57,94a1.72,1.72,0,0,0,.91.7l3.28,1.06a1.72,1.72,0,0,0,1.17,0l2.24,0.52a3.18,3.18,0,0,1-3.62,1.26h0Z"/><path class="cls-2" d="M46.26,96.64l-8.79-1.48a0.72,0.72,0,0,1-.59-0.83l0.1-.62a0.72,0.72,0,0,1,.83-0.59l8.79,1.48a0.72,0.72,0,0,1,.59.83L47.09,96a0.72,0.72,0,0,1-.83.59h0ZM44.2,93.58A3.17,3.17,0,0,1,47,92H51a3.17,3.17,0,0,1,2.74,1.58l-2.57.22a1.71,1.71,0,0,0-.51-0.08H47.24a1.71,1.71,0,0,0-.55.09l-2.49-.21h0Zm6.84,6H47a3.18,3.18,0,0,1-3-2.29l2.25,0.19a1.72,1.72,0,0,0,1.08.38h3.45a1.72,1.72,0,0,0,1.1-.4l2.29-.19a3.18,3.18,0,0,1-3,2.31h0Z"/><path class="cls-2" d="M61,95.47l-8.82,1.31a0.72,0.72,0,0,1-.82-0.6l-0.09-.62a0.72,0.72,0,0,1,.61-0.81l8.82-1.31a0.72,0.72,0,0,1,.82.6l0.09,0.62a0.72,0.72,0,0,1-.61.82h0ZM58,93.2a3.17,3.17,0,0,1,2.12-2.37l3.89-1.26a3.18,3.18,0,0,1,3.1.66l-2.38,1a1.72,1.72,0,0,0-.51.08L61,92.37a1.71,1.71,0,0,0-.49.25L58,93.2h0Zm8.35,3.57L62.52,98a3.18,3.18,0,0,1-3.6-1.24l2.2-.51a1.72,1.72,0,0,0,1.15,0l3.28-1.06a1.72,1.72,0,0,0,.92-0.72l2.12-.89a3.17,3.17,0,0,1-2.18,3.14h0Z"/><path class="cls-2" d="M74.57,89.82l-8,4a0.72,0.72,0,0,1-1-.32l-0.28-.57a0.72,0.72,0,0,1,.32-1l8-4a0.72,0.72,0,0,1,1,.32l0.28,0.57a0.72,0.72,0,0,1-.32,1h0ZM71.1,88.56a3.16,3.16,0,0,1,1.28-2.91l3.31-2.4a3.18,3.18,0,0,1,3.15-.33l-2,1.68a1.71,1.71,0,0,0-.46.24l-2.79,2a1.72,1.72,0,0,0-.39.39L71.1,88.56h0Zm9.05,0.82-3.3,2.4A3.18,3.18,0,0,1,73,91.71L75,90.54a1.72,1.72,0,0,0,1.1-.32l2.79-2a1.71,1.71,0,0,0,.66-1l1.74-1.5a3.16,3.16,0,0,1-1.1,3.66h0Z"/><path class="cls-2" d="M85.77,80.26L79.4,86.49a0.72,0.72,0,0,1-1,0L77.94,86a0.72,0.72,0,0,1,0-1l6.37-6.23a0.72,0.72,0,0,1,1,0l0.44,0.45a0.72,0.72,0,0,1,0,1h0Zm-3.69-.13A3.16,3.16,0,0,1,82.39,77l2.4-3.3a3.17,3.17,0,0,1,2.9-1.28l-1.34,2.2A1.71,1.71,0,0,0,86,75l-2,2.79a1.7,1.7,0,0,0-.25.5l-1.63,1.89h0Zm8.86-2-2.4,3.3a3.18,3.18,0,0,1-3.65,1.11l1.48-1.71a1.72,1.72,0,0,0,.94-0.65l2-2.79a1.71,1.71,0,0,0,.32-1.12l1.19-2a3.16,3.16,0,0,1,.08,3.82h0Z"/><path class="cls-2" d="M93.45,67.71L89.33,75.6a0.72,0.72,0,0,1-1,.3l-0.56-.29a0.72,0.72,0,0,1-.3-1l4.13-7.89a0.72,0.72,0,0,1,1-.3l0.56,0.29a0.72,0.72,0,0,1,.3,1h0Zm-3.55,1a3.16,3.16,0,0,1-.68-3.11l1.26-3.88a3.17,3.17,0,0,1,2.36-2.11l-0.59,2.51a1.71,1.71,0,0,0-.23.46L91,65.88a1.71,1.71,0,0,0-.08.55l-1,2.3h0Zm7.81-4.64L96.45,68a3.18,3.18,0,0,1-3.13,2.18l0.88-2.08a1.71,1.71,0,0,0,.7-0.91L96,63.88a1.71,1.71,0,0,0,0-1.17l0.53-2.24a3.16,3.16,0,0,1,1.26,3.61h0Z"/><path class="cls-2" d="M96.88,53.41l-1.48,8.77a0.72,0.72,0,0,1-.83.59l-0.62-.1a0.72,0.72,0,0,1-.59-0.83l1.48-8.77a0.72,0.72,0,0,1,.83-0.59l0.62,0.1a0.72,0.72,0,0,1,.59.83h0Zm-3.06,2.06a3.16,3.16,0,0,1-1.61-2.74V48.64a3.16,3.16,0,0,1,1.59-2.73L94,48.48a1.7,1.7,0,0,0-.08.51v3.44A1.7,1.7,0,0,0,94,53l-0.21,2.48h0Zm6-6.82v4.08a3.17,3.17,0,0,1-2.3,3l0.19-2.25a1.71,1.71,0,0,0,.38-1.08V49a1.71,1.71,0,0,0-.4-1.1L97.48,45.6a3.17,3.17,0,0,1,2.32,3h0Z"/><path class="cls-2" d="M95.7,38.75L97,47.55a0.72,0.72,0,0,1-.61.82l-0.63.09a0.72,0.72,0,0,1-.82-0.6l-1.31-8.8a0.72,0.72,0,0,1,.61-0.82l0.63-.09a0.72,0.72,0,0,1,.82.6h0Zm-2.28,2.9A3.17,3.17,0,0,1,91,39.53l-1.26-3.88a3.16,3.16,0,0,1,.66-3.09l1,2.37a1.71,1.71,0,0,0,.08.51l1.07,3.28a1.71,1.71,0,0,0,.25.49l0.57,2.43h0ZM97,33.32l1.26,3.88A3.17,3.17,0,0,1,97,40.79l-0.52-2.19a1.71,1.71,0,0,0,0-1.14l-1.07-3.28a1.71,1.71,0,0,0-.72-0.92l-0.89-2.12A3.18,3.18,0,0,1,97,33.32h0Z"/><path class="cls-2" d="M90,25.17l4,8a0.72,0.72,0,0,1-.32,1l-0.57.28a0.72,0.72,0,0,1-1-.32l-4-8a0.72,0.72,0,0,1,.32-1l0.57-.28a0.72,0.72,0,0,1,1,.32h0Zm-1.27,3.46a3.18,3.18,0,0,1-2.92-1.28l-2.4-3.3a3.16,3.16,0,0,1-.33-3.14l1.69,1.95a1.7,1.7,0,0,0,.24.46l2,2.79a1.7,1.7,0,0,0,.39.39l1.29,2.13h0Zm0.83-9L92,22.9a3.16,3.16,0,0,1-.07,3.8l-1.17-1.93a1.71,1.71,0,0,0-.33-1.1l-2-2.79a1.72,1.72,0,0,0-1-.65l-1.5-1.74a3.18,3.18,0,0,1,3.67,1.1h0Z"/><path class="cls-2" d="M80.45,14l6.25,6.35a0.72,0.72,0,0,1,0,1l-0.45.44a0.72,0.72,0,0,1-1,0L79,15.45a0.72,0.72,0,0,1,0-1L79.44,14a0.72,0.72,0,0,1,1,0h0Zm-0.13,3.68a3.18,3.18,0,0,1-3.17-.32L73.85,15a3.16,3.16,0,0,1-1.28-2.89l2.21,1.33a1.71,1.71,0,0,0,.37.36l2.79,2a1.71,1.71,0,0,0,.5.25l1.89,1.63h0Zm-2-8.84,3.31,2.4a3.16,3.16,0,0,1,1.11,3.64L81,13.4a1.71,1.71,0,0,0-.65-0.94l-2.79-2a1.72,1.72,0,0,0-1.12-.32l-2-1.19a3.18,3.18,0,0,1,3.83-.08h0Z"/><path class="cls-2" d="M67.88,6.33l7.91,4.12a0.72,0.72,0,0,1,.31,1L75.79,12a0.72,0.72,0,0,1-1,.3L66.92,8.16a0.72,0.72,0,0,1-.3-1l0.29-.56a0.72,0.72,0,0,1,1-.3h0Zm1,3.54a3.18,3.18,0,0,1-3.11.68L61.89,9.29a3.17,3.17,0,0,1-2.12-2.35l2.51,0.59a1.72,1.72,0,0,0,.46.23L66,8.82a1.71,1.71,0,0,0,.55.08l2.3,1h0ZM63.83,2a38.94,38.94,0,0,1,4.3,1.35,3.17,3.17,0,0,1,2.18,3.12l-2.08-.87a1.72,1.72,0,0,0-.91-0.7L64,3.83a1.72,1.72,0,0,0-1.17,0l-2.24-.52A3.44,3.44,0,0,1,63.83,2Z"/><path class="cls-1" d="M117.73,83.06V67.19c0-.88-0.27-1.39.88-1.17,0.47,0.09.25-.09,0.35,0.3a5.73,5.73,0,0,1,0,1.22V81.88A3.2,3.2,0,0,1,119,83,2.15,2.15,0,0,1,117.73,83.06Z"/><path class="cls-1" d="M122.24,74.42c0-4.06,2.89-8,7-8.44a7.38,7.38,0,0,1,5.42,1.35c0.48,0.37,1.85,1.5,1.82,2.18a1.6,1.6,0,0,1-.94.71,6.21,6.21,0,0,0-8.53-2.36,7.83,7.83,0,0,0-3.39,8.42c0.7,3.09,3.31,5.79,6.62,5.79a6.44,6.44,0,0,0,4.54-1.84,14.61,14.61,0,0,1,1.12-1.48,3.32,3.32,0,0,1,1,.49c-1.46,3.25-5.8,4.72-9.07,3.58A9,9,0,0,1,122.24,74.42Z"/><path class="cls-1" d="M146.77,83.18a8.13,8.13,0,0,1-7.51-5.8,9.12,9.12,0,0,1,2.4-9.44,7.5,7.5,0,0,1,9.37-.7,9.08,9.08,0,0,1,3.58,9C153.91,80,150.72,83.18,146.77,83.18ZM140,74.54a7.61,7.61,0,0,0,4.31,7,6.33,6.33,0,0,0,7.53-2.11,8.22,8.22,0,0,0,.76-8.6,6.61,6.61,0,0,0-7.14-3.69C142.15,67.83,140,71.28,140,74.54Z"/><path class="cls-1" d="M164.22,83.06V66.84c0-.48-0.12-0.67.21-0.82a4.12,4.12,0,0,1,1.29,0H168c1.08,0,2.16,0,3.23,0a5.23,5.23,0,0,1,5,4.32,5.13,5.13,0,0,1-3.91,6.09l4.25,6.62a2.23,2.23,0,0,1-1.54-.19A10,10,0,0,1,173.76,81L172,78.24a6,6,0,0,0-1-1.57,3.65,3.65,0,0,0-1.46,0h-3.07c-0.46,0-.86-0.14-1,0.19a7.82,7.82,0,0,0,0,2.44v3.23a1.76,1.76,0,0,1,0,.57A4,4,0,0,1,164.22,83.06Zm1.22-7.56c1.84,0,3.69,0,5.53,0a3.72,3.72,0,0,0,3.27-1.55,4.56,4.56,0,0,0-.31-5.55c-1.6-1.78-4.4-1.27-6.55-1.27a5.82,5.82,0,0,0-1.93,0,6.53,6.53,0,0,0,0,2.15v6.2Z"/><path class="cls-1" d="M184.74,83.3c-3.92,0-6.62-3.76-6.1-7.5a6.16,6.16,0,0,1,8.19-5,6.23,6.23,0,0,1,3.5,3.55,6.63,6.63,0,0,1,.4,1.55,3.29,3.29,0,0,1,0,1.32c-0.14.18-.1,0.05-0.37,0.11a10.53,10.53,0,0,1-2.19,0h-8.4a5.22,5.22,0,0,0,5.13,5,4.7,4.7,0,0,0,3.33-1.54A1.48,1.48,0,0,1,189,80a3.22,3.22,0,0,1,.85.23C189.11,82.23,186.79,83.3,184.74,83.3Zm4.9-7a5.15,5.15,0,0,0-4.94-5,5.08,5.08,0,0,0-4.9,5h9.84Z"/><path class="cls-1" d="M197.27,83.06l-5.21-12.48a3,3,0,0,1,1.26,0,2.7,2.7,0,0,1,.33.82l1.58,3.87,2.68,6.56,2.66-6.46,1.58-3.86a3,3,0,0,1,.37-0.9,2.61,2.61,0,0,1,1.2-.06l-3,7.15L198.94,82a3.13,3.13,0,0,1-.41,1A2.87,2.87,0,0,1,197.27,83.06Z"/><path class="cls-1" d="M206.1,67.74a6,6,0,0,1,0-2c0.13-.24-0.05-0.08.26-0.18a2.68,2.68,0,0,1,.94,0,5.83,5.83,0,0,1,0,1.9c-0.11.42,0.13,0.18-.26,0.31A3.47,3.47,0,0,1,206.1,67.74Zm0,15.31V71.23a1.91,1.91,0,0,1,0-.61,2.42,2.42,0,0,1,1,0c0.31,0.16.06-.09,0.19,0.2a3.25,3.25,0,0,1,0,1V82.41a1.85,1.85,0,0,1,0,.63A3.73,3.73,0,0,1,206.1,83.06Z"/><path class="cls-1" d="M216.37,83.3c-3.92,0-6.62-3.76-6.1-7.5a6.16,6.16,0,0,1,8.19-5,6.23,6.23,0,0,1,3.5,3.55,6.63,6.63,0,0,1,.39,1.55,3.29,3.29,0,0,1,0,1.32c-0.14.18-.1,0.05-0.37,0.11a10.53,10.53,0,0,1-2.19,0h-8.4a5.22,5.22,0,0,0,5.13,5,4.7,4.7,0,0,0,3.33-1.54,1.48,1.48,0,0,1,.76-0.8,3.22,3.22,0,0,1,.85.23C220.74,82.23,218.42,83.3,216.37,83.3Zm4.9-7a5.15,5.15,0,0,0-4.94-5,5.09,5.09,0,0,0-4.9,5h9.84Z"/><path class="cls-1" d="M240.87,70.58h1.2l-3.71,8.57-1,2.41a4.81,4.81,0,0,1-.59,1.37,1.2,1.2,0,0,1-1.07.1,5.54,5.54,0,0,1-.72-1.68l-2.08-4.89-1.79,4.21a9.58,9.58,0,0,1-.92,2.17A0.93,0.93,0,0,1,229,83a3.24,3.24,0,0,1-.44-1l-1-2.21-2.46-5.68-1.54-3.57a2.56,2.56,0,0,1,1.2.06,2.81,2.81,0,0,1,.36.83l1.66,3.87,2.74,6.4,1.12-2.62,0.86-2a6.67,6.67,0,0,0,.57-1.35,5.2,5.2,0,0,0-.79-2.21l-1.25-3a2.22,2.22,0,0,1,1.06.07,4.27,4.27,0,0,1,.54,1.28l1.16,2.78L234,71.95a4.32,4.32,0,0,1,.52-1.26,2,2,0,0,1,1.09-.09l-1.25,3a5.2,5.2,0,0,0-.79,2.21,6.27,6.27,0,0,0,.54,1.27L235,79.11l1.12,2.62Z"/><path class="cls-1" d="M248.36,83.3a7.57,7.57,0,0,1-4-1.08,2.1,2.1,0,0,1-1-.92,3,3,0,0,1,.54-0.73,6.52,6.52,0,0,0,4.1,1.77c1.31,0.07,3.06-.2,3.74-1.49,1.69-3.23-3.94-3.59-5.72-4.21a2.67,2.67,0,0,1-2.12-3,3.51,3.51,0,0,1,2.63-3,6.67,6.67,0,0,1,4.67.29c0.33,0.15,1.6.78,1.58,1.2a2.79,2.79,0,0,1-.66.63c-1.37-1.58-4.85-2.14-6.43-.58a2.18,2.18,0,0,0-.16,3,7.47,7.47,0,0,0,3.08,1.07c2,0.51,4.73,1.05,4.53,3.67C253,82.36,250.49,83.3,248.36,83.3Z"/><path class="cls-1" d="M256.4,85l0.36-1.9c-0.47.09-.36,0-0.43-0.33a4.17,4.17,0,0,1,0-1.5c0.11-.35,0-0.26.52-0.26s0.56-.1.7,0.19a4.75,4.75,0,0,1-.05,2.09,4.9,4.9,0,0,1-.38,1.43C256.91,85.08,256.91,85,256.4,85Z"/><path class="cls-1" d="M268.19,83.06V66.84c0-.48-0.12-0.67.21-0.82a4.12,4.12,0,0,1,1.29,0h2.24c1.08,0,2.16,0,3.23,0a5.23,5.23,0,0,1,5,4.32,5.13,5.13,0,0,1-3.91,6.09l4.25,6.62a2.23,2.23,0,0,1-1.54-.19A10,10,0,0,1,277.73,81L276,78.24a6,6,0,0,0-1-1.57,3.65,3.65,0,0,0-1.46,0h-3.07c-0.46,0-.86-0.14-1,0.19a7.82,7.82,0,0,0,0,2.44v3.23a1.76,1.76,0,0,1,0,.57A4,4,0,0,1,268.19,83.06Zm1.22-7.56c1.84,0,3.69,0,5.53,0a3.72,3.72,0,0,0,3.27-1.55,4.56,4.56,0,0,0-.31-5.55c-1.6-1.78-4.4-1.27-6.55-1.27a5.82,5.82,0,0,0-1.93,0,6.53,6.53,0,0,0,0,2.15v6.2Z"/><path class="cls-1" d="M286.47,83.3c-2.87,0-5.49-3.32-3.36-5.86,1.9-2.28,5.84-2,8.33-1,0-1.56,0-3.22-1.3-4.31-1.94-1.57-4.65-.52-6.45.71a2.75,2.75,0,0,1-.46-0.82c0.09-.47,2.06-1.13,2.49-1.28a6,6,0,0,1,4.57.19c2.11,1.09,2.34,3.29,2.34,5.41a42.57,42.57,0,0,0,0,5,0.56,0.56,0,0,0,0,.34,2.31,2.31,0,0,0,.5.37,3.23,3.23,0,0,1,0,1A1.16,1.16,0,0,1,291.59,82a7.49,7.49,0,0,1,0-1A6.39,6.39,0,0,1,286.47,83.3Zm0.24-1c1.69,0,4.52-.86,4.73-2.89a14.73,14.73,0,0,0,0-1.47,2.18,2.18,0,0,0,0-.7,3.39,3.39,0,0,0-1.43-.45c-1.85-.41-4.73-0.56-6,1.15C282.48,80,284.6,82.34,286.71,82.34Z"/><path class="cls-1" d="M301.86,82.46c-1.34.67-3.37,1.31-4.55,0a3,3,0,0,1-.51-2.11V74.42c0-.8,0-1.6,0-2.4s-0.17-.46-0.88-0.46a2,2,0,0,1-.88,0,1.28,1.28,0,0,1,.1-0.94,4.82,4.82,0,0,1,1.31,0c0.42-.09.23,0.1,0.35-0.22a4.06,4.06,0,0,0,0-1.16V67.59a3.45,3.45,0,0,1,0-1.11c0.13-.26.19-0.17,0.6-0.17a0.68,0.68,0,0,1,.6.1,3.32,3.32,0,0,1,0,1.1,10.77,10.77,0,0,0,0,2.81c0.1,0.31-.08.13,0.15,0.26a4.52,4.52,0,0,0,1.5,0,3.66,3.66,0,0,1,1.19,0,1.44,1.44,0,0,1,.07.89c-0.21.3-1.77,0.1-2.21,0.1-0.68,0-.69-0.12-0.69.52v6.41c0,0.71,0,1.43,0,2.14,0.12,1.87,2.31,1.57,3.5.87Z"/><path class="cls-1" d="M304,67.74a6,6,0,0,1,0-2c0.13-.24-0.05-0.08.26-0.18a2.68,2.68,0,0,1,.94,0,5.83,5.83,0,0,1,0,1.9c-0.11.42,0.13,0.18-.26,0.31A3.47,3.47,0,0,1,304,67.74Zm0,15.31V71.23a1.91,1.91,0,0,1,0-.61,2.42,2.42,0,0,1,1,0c0.31,0.16.06-.09,0.19,0.2a3.25,3.25,0,0,1,0,1V82.41a1.85,1.85,0,0,1,0,.63A3.73,3.73,0,0,1,304,83.06Z"/><path class="cls-1" d="M319.14,83.06a3,3,0,0,1-1,0c-0.25-.15,0,0.07-0.15-0.21a6.49,6.49,0,0,1,0-2c0-1.54,0-3.08,0-4.62,0-2.32-.5-5.14-3.49-4.7-2.18.32-4.31,2.29-4.31,4.55v5.31a4.88,4.88,0,0,1,0,1.63,2.21,2.21,0,0,1-1.2,0,3.26,3.26,0,0,1,0-1V71.71a3.45,3.45,0,0,1,0-1.13,2.93,2.93,0,0,1,1,0c0.2,0.11.14,0.18,0.14,0.5v2.47c1.2-2.25,4.22-3.87,6.74-3,2.13,0.75,2.31,3.49,2.33,5.4C319.16,78.33,319.14,80.69,319.14,83.06Z"/><path class="cls-1" d="M327.8,83.25c-4.7,0-7-5.51-5.25-9.43a5.75,5.75,0,0,1,4.79-3.45,6,6,0,0,1,5.26,2.92V72.22a4.41,4.41,0,0,1,0-1.49,0.88,0.88,0,0,1,1.1,0,5.47,5.47,0,0,1,0,1.77V82c0,2.2-.26,4.29-2.37,5.54a7.61,7.61,0,0,1-6.26.42,5.36,5.36,0,0,1-2.37-1.81c-0.58-.76-0.29-0.71.4-1.17,1.63,2.79,6.51,3.47,8.6.82,1.13-1.44.81-3.52,0.81-5.24A5.69,5.69,0,0,1,327.8,83.25Zm0.29-1A4.9,4.9,0,0,0,332,80.06a3.75,3.75,0,0,0,.49-2.38c0-.83.06-1.69,0-2.52a4,4,0,0,0-1.62-2.6,4.66,4.66,0,0,0-7.44,2.35C322.36,78.14,324.38,82.22,328.09,82.22Z"/><path class="cls-1" d="M341.41,83.3a7.57,7.57,0,0,1-4-1.08,2.1,2.1,0,0,1-1-.92,3,3,0,0,1,.54-0.73,6.52,6.52,0,0,0,4.1,1.77c1.31,0.07,3.06-.2,3.74-1.49,1.69-3.23-3.94-3.59-5.72-4.21a2.66,2.66,0,0,1-2.12-3,3.51,3.51,0,0,1,2.63-3,6.67,6.67,0,0,1,4.67.29c0.33,0.15,1.6.78,1.58,1.2a2.79,2.79,0,0,1-.66.63c-1.37-1.58-4.85-2.14-6.43-.58a2.18,2.18,0,0,0-.16,3,7.47,7.47,0,0,0,3.08,1.07c2,0.51,4.73,1.05,4.53,3.67C346,82.36,343.54,83.3,341.41,83.3Z"/><path class="cls-1" d="M367.23,83.06L365,80.78c-2.22,2.59-6.5,3.58-9.21,1.11a4.23,4.23,0,0,1-1.18-4.4c0.54-1.72,2.13-2.91,3.58-3.86-1.25-1.33-2.89-3-2.33-5a4.17,4.17,0,0,1,4.38-2.78,3.46,3.46,0,0,1,3.48,3.43c-0.12,2.13-2.31,3.43-3.88,4.5L365,79.07a8.74,8.74,0,0,0,1.05-3.35,1.27,1.27,0,0,1,.22-1,2.66,2.66,0,0,1,.89,0,10.26,10.26,0,0,1-.9,4.12c-0.46,1-.69.86,0,1.57l2.56,2.66h-1.61ZM360,82.31a5.46,5.46,0,0,0,4-1.77c0.58-.6.34-0.58-0.16-1.1l-3.52-3.69A5.3,5.3,0,0,0,359,74.48c-0.57-.2-2.06,1.4-2.44,1.86C354.27,79.2,356.69,82.31,360,82.31Zm-3-12.89a3.37,3.37,0,0,0,.91,2c0.23,0.29.47,0.57,0.72,0.85l0.41,0.45q0.21,0.47.54,0a7,7,0,0,0,1.82-1.35,3.44,3.44,0,0,0,1.31-1.8C363.44,66,356.91,65.85,356.91,69.42Z"/><path class="cls-1" d="M382.76,66a1.76,1.76,0,0,1,1.1.11,3.2,3.2,0,0,1,.38.89l1.63,3.86L390,80.7l1,2.36c-0.68,0-1.12.21-1.44-.35a23.6,23.6,0,0,1-1.12-2.64,9.49,9.49,0,0,0-1-2.44,0.93,0.93,0,0,0-.87-0.18h-6a3.94,3.94,0,0,0-1.35,0,5.86,5.86,0,0,0-.77,1.82l-1.34,3.17a2.05,2.05,0,0,1-.26.62,3.83,3.83,0,0,1-1.32,0l6.33-14.88ZM387,76.43l-3.72-8.93-3.79,8.93H387Z"/><path class="cls-1" d="M403.45,83.06a3,3,0,0,1-1,0c-0.25-.15,0,0.07-0.15-0.21a6.49,6.49,0,0,1,0-2c0-1.54,0-3.08,0-4.62,0-2.32-.5-5.14-3.49-4.7-2.18.32-4.31,2.29-4.31,4.55v5.31a4.88,4.88,0,0,1,0,1.63,2.21,2.21,0,0,1-1.2,0,3.26,3.26,0,0,1,0-1V71.71a3.45,3.45,0,0,1,0-1.13,2.93,2.93,0,0,1,1,0c0.2,0.11.14,0.18,0.14,0.5v2.47c1.2-2.25,4.22-3.87,6.74-3,2.13,0.75,2.31,3.49,2.33,5.4C403.47,78.33,403.45,80.69,403.45,83.06Z"/><path class="cls-1" d="M410.14,83.3c-2.87,0-5.49-3.32-3.36-5.86,1.9-2.28,5.84-2,8.33-1,0-1.56,0-3.22-1.3-4.31-1.93-1.57-4.65-.52-6.45.71A2.75,2.75,0,0,1,406.9,72c0.09-.47,2.07-1.13,2.49-1.28a6,6,0,0,1,4.57.19c2.11,1.09,2.34,3.29,2.34,5.41a42.71,42.71,0,0,0,0,5,0.57,0.57,0,0,0,0,.34,2.31,2.31,0,0,0,.49.37,3.23,3.23,0,0,1,0,1A1.16,1.16,0,0,1,415.25,82a7.48,7.48,0,0,1,0-1A6.38,6.38,0,0,1,410.14,83.3Zm0.24-1c1.69,0,4.52-.86,4.73-2.89a14.73,14.73,0,0,0,0-1.47,2.18,2.18,0,0,0,0-.7,3.39,3.39,0,0,0-1.43-.45c-1.85-.41-4.73-0.56-6,1.15C406.15,80,408.27,82.34,410.38,82.34Z"/><path class="cls-1" d="M420.05,65.54a3,3,0,0,1,1.22,0,2.48,2.48,0,0,1,0,.83V79.71c0,0.28,0,.58,0,0.86,0.09,1.55,1.54,1.77,2.81,1.28a2.91,2.91,0,0,1,.23.92,2.87,2.87,0,0,1-1.56.4,2.24,2.24,0,0,1-2.71-2.23c0-.75,0-1.51,0-2.26V65.54Z"/><path class="cls-1" d="M427,87.28c1.54,0.3,2-1.12,2.44-2.27,0.3-.7.89-1.5,0.7-2.22a27.46,27.46,0,0,0-1.75-3.92l-3.7-8.3a3,3,0,0,1,1.26,0,2.84,2.84,0,0,1,.38.85L428,75.32l2.88,6.56,2.65-6.48,1.58-3.86a3,3,0,0,1,.37-0.9,2.61,2.61,0,0,1,1.2-.06c-2.22,5.34-4.42,10.69-6.67,16a2.91,2.91,0,0,1-.91,1.37c-0.34.25-1.77,0.79-2.14,0.43A3.3,3.3,0,0,1,427,87.28Z"/><path class="cls-1" d="M443.09,83.3a7.57,7.57,0,0,1-4-1.08,2.1,2.1,0,0,1-1-.92,3,3,0,0,1,.54-0.73,6.52,6.52,0,0,0,4.1,1.77c1.31,0.07,3.06-.2,3.74-1.49,1.69-3.23-3.94-3.59-5.72-4.21a2.66,2.66,0,0,1-2.12-3,3.51,3.51,0,0,1,2.63-3,6.67,6.67,0,0,1,4.67.29c0.33,0.15,1.6.78,1.58,1.2a2.79,2.79,0,0,1-.66.63c-1.37-1.58-4.85-2.14-6.43-.58a2.18,2.18,0,0,0-.16,3,7.47,7.47,0,0,0,3.08,1.07c2,0.51,4.73,1.05,4.53,3.67C447.7,82.36,445.22,83.3,443.09,83.3Z"/><path class="cls-1" d="M450.68,67.74a6,6,0,0,1,0-2c0.13-.24-0.05-0.08.26-0.18a2.68,2.68,0,0,1,.94,0,5.83,5.83,0,0,1,0,1.9c-0.11.42,0.13,0.18-.26,0.31A3.47,3.47,0,0,1,450.68,67.74Zm0,15.31V71.23a1.91,1.91,0,0,1,0-.61,2.42,2.42,0,0,1,1,0c0.31,0.16.06-.09,0.19,0.2a3.25,3.25,0,0,1,0,1V82.41a1.85,1.85,0,0,1,0,.63A3.73,3.73,0,0,1,450.68,83.06Z"/><path class="cls-1" d="M459.61,83.3a7.57,7.57,0,0,1-4-1.08,2.1,2.1,0,0,1-1-.92,3,3,0,0,1,.54-0.73,6.52,6.52,0,0,0,4.1,1.77c1.31,0.07,3.06-.2,3.74-1.49,1.69-3.23-3.94-3.59-5.72-4.21a2.66,2.66,0,0,1-2.12-3,3.51,3.51,0,0,1,2.63-3,6.67,6.67,0,0,1,4.67.29c0.33,0.15,1.6.78,1.58,1.2a2.79,2.79,0,0,1-.66.63c-1.37-1.58-4.85-2.14-6.43-.58a2.18,2.18,0,0,0-.16,3,7.47,7.47,0,0,0,3.08,1.07c2,0.51,4.73,1.05,4.53,3.67C464.21,82.36,461.73,83.3,459.61,83.3Z"/></svg>